<?xml version="1.0"?>
<svg xmlns="http://www.w3.org/2000/svg" id="Layer_1" height="512px" viewBox="0 0 128 128" width="512px" data-name="Layer 1" class=""><g><path d="m111.282 71.642v-9.2a1.75 1.75 0 0 0 -1.75-1.75h-2.332v-31.779l2.888-.969a1.75 1.75 0 0 0 0-3.318l-45.531-15.285a1.754 1.754 0 0 0 -1.114 0l-45.532 15.284a1.75 1.75 0 0 0 0 3.318l14.844 4.983v27.185c0 1.121 0 2.816 10.083 4.607a123.887 123.887 0 0 0 21.162 1.725 123.887 123.887 0 0 0 21.162-1.725c10.083-1.791 10.083-3.486 10.083-4.607v-27.184l8.456-2.839v30.6h-2.331a1.75 1.75 0 0 0 -1.75 1.75v8.812h-80.787c-.049 0-.095.01-.142.014-5.3.122-9.441 7.131-9.441 16.069 0 8.908 4.109 15.9 9.389 16.064a1.74 1.74 0 0 0 .195.02h32.374l-5.064 12.945a1.75 1.75 0 0 0 2.539 2.133l5.729-3.484 2.167 3.012a1.75 1.75 0 0 0 1.42.728 1.842 1.842 0 0 0 .219-.014 1.751 1.751 0 0 0 1.411-1.1l4.371-11.17 4.37 11.171a1.751 1.751 0 0 0 1.411 1.1 1.842 1.842 0 0 0 .219.014 1.75 1.75 0 0 0 1.42-.728l2.167-3.012 5.729 3.484a1.75 1.75 0 0 0 2.539-2.133l-5.064-12.945h32.375c5.374 0 9.583-7.064 9.583-16.084.001-7.779-3.118-14.116-7.467-15.692zm-47.282-58.796 40.033 13.438-40.033 13.44-40.033-13.44zm27.745 46.565c-2.4 1.211-13.192 3.532-27.745 3.532s-25.347-2.321-27.745-3.532v-25.311l27.188 9.127a1.754 1.754 0 0 0 1.114 0l27.188-9.127zm11.375 4.776h4.662v11.284l-1.182-1.033a1.748 1.748 0 0 0 -2.308 0l-1.177 1.032zm-28.409 23.146c0 7.416-3.206 12.584-6.083 12.584h-3.228c2.18-2.924 3.557-7.431 3.557-12.584s-1.379-9.659-3.557-12.583h3.229c2.871 0 6.082 5.168 6.082 12.583zm-49.853 12.584c2.183-2.923 3.562-7.431 3.562-12.584s-1.379-9.66-3.561-12.583h34.514c2.877 0 6.083 5.168 6.083 12.583s-3.206 12.584-6.083 12.584zm-5.118-10.834h5.112c-.394 5.575-2.618 9.593-4.924 10.589-2.162-5.945-.897-9.334-.188-10.589zm-6.99-1.75c0-7.414 3.2-12.58 6.08-12.58 2.647 0 5.565 4.369 6.021 10.83h-6.021a1.751 1.751 0 0 0 -1.285.563c-.172.186-3.614 4.073-1.734 11.944-1.722-2.128-3.061-5.968-3.061-10.757zm44.792 26.034-1.235-1.716a1.751 1.751 0 0 0 -2.33-.473l-2.686 1.634 3.676-9.4h6.467zm19.167-.555-2.686-1.634a1.75 1.75 0 0 0 -2.33.473l-1.235 1.716-3.893-9.95h6.467zm32.458-12.9h-34.513c2.18-2.924 3.557-7.431 3.557-12.584s-1.377-9.659-3.557-12.583h24.966v4.583a1.75 1.75 0 0 0 2.9 1.315l2.927-2.566 2.927 2.566a1.75 1.75 0 0 0 2.9-1.315v-3.7c2.14 1.774 3.968 6.1 3.968 11.7.008 7.421-3.198 12.589-6.075 12.589z" data-original="#000000" class="active-path" data-old_color="#000000" fill="#fff"/></g> </svg>
