<?xml version="1.0"?>
<svg xmlns="http://www.w3.org/2000/svg" viewBox="0 0 64 64" width="512px" height="512px" class=""><g><g id="Success"><path d="M51,16H61a1,1,0,0,0,1-1V8a1,1,0,0,0-1-1H54V5a1,1,0,0,0-1-1H44V3a1,1,0,0,0-2,0V26.752L37,36.2V18a1,1,0,0,0-1-1H30a1,1,0,0,0-1,1V38.2l-1.168-1.751a1.039,1.039,0,0,0-1.664,0L25,38.2V28a1,1,0,0,0-1-1H18a1,1,0,0,0-1,1V44.2l-1.168-1.752a1.039,1.039,0,0,0-1.664,0L13,44.2V36a1,1,0,0,0-1-1H6a1,1,0,0,0-1,1V56.2L2.168,60.445A1,1,0,0,0,3,62H61a1,1,0,0,0,.884-1.468L44,26.752V13h6v2A1,1,0,0,0,51,16ZM31,19h4V39.974L32.87,44,31,41.2ZM19,29h4V41.2l-4,6ZM7,37h4V47.2l-4,6Zm8,7.8L17.8,49,10.465,60h-5.6Zm4.833,4.75,0-.006L27,38.8l4.806,7.2L24.4,60H12.868ZM59.339,60H26.661L43,29.137ZM54,12V9h6v5H52V13h1A1,1,0,0,0,54,12ZM44,11V6h8v5Z" data-original="#000000" class="active-path" data-old_color="#000000" fill="#FFFFFF"/><path d="M6,30H6a1,1,0,0,1-.707-.293L2.465,26.878a1,1,0,0,1,0-1.414L21.313,6.615,19.9,5.2a1,1,0,0,1,.617-1.7l7.778-.707a1,1,0,0,1,1.087,1.086l-.707,7.778a1,1,0,0,1-1.7.617l-1.414-1.414L6.707,29.707A1,1,0,0,1,6,30ZM4.586,26.171,6,27.586,24.85,8.737a1,1,0,0,1,1.414,0l.611.611.405-4.457L22.823,5.3l.612.611a1,1,0,0,1,0,1.414Z" data-original="#000000" class="active-path" data-old_color="#000000" fill="#FFFFFF"/></g></g> </svg>
